<svg width="30" height="30" viewBox="0 0 30 30" fill="none" xmlns="http://www.w3.org/2000/svg">
<path d="M15 3.75151C17.225 3.75151 19.4001 4.41131 21.2502 5.64748C23.1002 6.88364 24.5421 8.64065 25.3936 10.6963C26.2451 12.752 26.4679 15.014 26.0338 17.1963C25.5997 19.3786 24.5283 21.3831 22.9549 22.9564C21.3816 24.5298 19.377 25.6012 17.1948 26.0353C15.0125 26.4694 12.7505 26.2466 10.6948 25.3951C8.63914 24.5437 6.88213 23.1017 5.64596 21.2517C4.4098 19.4016 3.75 17.2265 3.75 15.0015C3.75 14.5042 3.55245 14.0273 3.20082 13.6757C2.84919 13.324 2.37228 13.1265 1.875 13.1265C1.37772 13.1265 0.900805 13.324 0.549174 13.6757C0.197544 14.0273 1.04794e-08 14.5042 0 15.0015C0.000338143 18.3672 1.13259 21.635 3.21469 24.2793C5.29678 26.9237 8.20772 28.791 11.4794 29.581C14.7511 30.3709 18.1933 30.0376 21.2527 28.6346C24.312 27.2317 26.8106 24.8406 28.3467 21.8459C29.8827 18.8511 30.367 15.4268 29.7216 12.1236C29.0762 8.82038 27.3386 5.83019 24.7883 3.63389C22.238 1.43759 19.0231 0.16282 15.6607 0.0145664C12.2983 -0.133687 8.98372 0.853195 6.25 2.81651V1.87651C6.25 1.37923 6.05245 0.902319 5.70082 0.550688C5.34919 0.199058 4.87228 0.00151421 4.375 0.00151421C3.87772 0.00151421 3.4008 0.199058 3.04917 0.550688C2.69754 0.902319 2.5 1.37923 2.5 1.87651V8.12651C2.5 9.16151 3.34 10.0015 4.375 10.0015H8.12499C8.62228 10.0015 9.09919 9.80396 9.45082 9.45233C9.80245 9.1007 9.99999 8.62379 9.99999 8.12651C9.99999 7.62923 9.80245 7.15231 9.45082 6.80068C9.09919 6.44905 8.62228 6.25151 8.12499 6.25151H7.92749C9.92754 4.63 12.4252 3.74712 15 3.75151ZM16.25 9.37651C16.25 8.87923 16.0524 8.40231 15.7008 8.05068C15.3492 7.69905 14.8723 7.50151 14.375 7.50151C13.8777 7.50151 13.4008 7.69905 13.0492 8.05068C12.6975 8.40231 12.5 8.87923 12.5 9.37651V15.6265C12.5 16.6615 13.34 17.5015 14.375 17.5015H18.125C18.6223 17.5015 19.0992 17.304 19.4508 16.9523C19.8024 16.6007 20 16.1238 20 15.6265C20 15.1292 19.8024 14.6523 19.4508 14.3007C19.0992 13.949 18.6223 13.7515 18.125 13.7515H16.25V9.37651Z" fill="white"/>
</svg>
