<svg width="30" height="29" viewBox="0 0 30 29" fill="none" xmlns="http://www.w3.org/2000/svg">
<path d="M29.3779 13.9395L16.5917 1.15991L15.7347 0.302861C15.5394 0.108874 15.2753 0 15.0001 0C14.7248 0 14.4607 0.108874 14.2655 0.302861L0.622239 13.9395C0.422144 14.1388 0.264006 14.3762 0.157159 14.6376C0.0503114 14.899 -0.00307949 15.1792 0.000137159 15.4616C0.0133734 16.6264 0.982925 17.5562 2.14771 17.5562H3.55406V28.3338H26.4461V17.5562H27.8822C28.448 17.5562 28.9808 17.3345 29.3812 16.9341C29.5783 16.7376 29.7346 16.5039 29.8408 16.2466C29.947 15.9893 30.0011 15.7135 30 15.4351C30 14.8726 29.7783 14.3399 29.3779 13.9395ZM16.8531 25.9513H13.147V19.2008H16.8531V25.9513ZM24.0635 15.1737V25.9513H18.9709V18.4067C18.9709 17.6754 18.3786 17.0831 17.6473 17.0831H12.3528C11.6215 17.0831 11.0292 17.6754 11.0292 18.4067V25.9513H5.93657V15.1737H2.75988L15.0034 2.94017L15.7678 3.70456L27.2435 15.1737H24.0635Z" fill="#A4ADBE"/>
</svg>
