<svg width="25" height="25" viewBox="0 0 25 25" fill="none" xmlns="http://www.w3.org/2000/svg">
<path d="M12.5 17.4976C15.2614 17.4976 17.5 15.259 17.5 12.4976C17.5 9.73614 15.2614 7.49756 12.5 7.49756C9.73858 7.49756 7.5 9.73614 7.5 12.4976C7.5 15.259 9.73858 17.4976 12.5 17.4976Z" fill="#71D3B6"/>
<path d="M13.75 2.58625V0H11.25V2.58625C9.05037 2.8671 7.00621 3.87021 5.43821 5.43821C3.87021 7.00621 2.8671 9.05037 2.58625 11.25H0V13.75H2.58625C2.86669 15.9498 3.86967 17.9942 5.43775 19.5623C7.00582 21.1303 9.05021 22.1333 11.25 22.4137V25H13.75V22.4137C15.9499 22.1335 17.9944 21.1306 19.5625 19.5625C21.1306 17.9944 22.1335 15.9499 22.4137 13.75H25V11.25H22.4137C22.1333 9.05021 21.1303 7.00582 19.5623 5.43775C17.9942 3.86967 15.9498 2.86669 13.75 2.58625ZM12.5 20C8.36375 20 5 16.6362 5 12.5C5 8.36375 8.36375 5 12.5 5C16.6362 5 20 8.36375 20 12.5C20 16.6362 16.6362 20 12.5 20Z" fill="#71D3B6"/>
</svg>
